<svg width="17" height="21" viewBox="0 0 17 21" fill="none" xmlns="http://www.w3.org/2000/svg">
    <path fill-rule="evenodd" clip-rule="evenodd" d="M5.25 3.8C5.25 2.52975 6.27975 1.5 7.55 1.5H9.45C10.7203 1.5 11.75 2.52975 11.75 3.8V7.12029L8.89967 6.79266C8.6341 6.76214 8.3659 6.76214 8.10033 6.79266L5.25 7.12029V3.8ZM4.25256 7.23494C4.25087 7.21818 4.25 7.20119 4.25 7.18399V3.8C4.25 1.97746 5.72746 0.5 7.55 0.5H9.45C11.2725 0.5 12.75 1.97746 12.75 3.8V7.18399C12.75 7.20119 12.7491 7.21818 12.7474 7.23494L13.3997 7.3099C15.1664 7.51298 16.5 9.00864 16.5 10.787V15.9299C16.5 17.6335 15.2735 19.0896 13.5947 19.379L9.09468 20.1549C8.70113 20.2227 8.29887 20.2227 7.90532 20.1549L3.40532 19.379C1.72655 19.0896 0.5 17.6335 0.5 15.9299V10.787C0.5 9.00865 1.8336 7.51298 3.60033 7.3099L4.25256 7.23494ZM8.21452 7.78612C8.40422 7.76432 8.59578 7.76432 8.78548 7.78612L13.2855 8.30336C14.5474 8.44842 15.5 9.51675 15.5 10.787V15.9299C15.5 17.1467 14.6239 18.1868 13.4248 18.3936L8.92477 19.1694C8.64366 19.2179 8.35634 19.2179 8.07523 19.1694L3.57523 18.3936C2.37611 18.1868 1.5 17.1467 1.5 15.9299V10.787C1.5 9.51675 2.45257 8.44842 3.71452 8.30336L8.21452 7.78612ZM8.98553 13.3802C9.31628 13.2057 9.54171 12.8584 9.54171 12.4584C9.54171 11.8831 9.07534 11.4167 8.50004 11.4167C7.92475 11.4167 7.45837 11.8831 7.45837 12.4584C7.45837 12.8583 7.68377 13.2056 8.01448 13.3802C8.00502 13.4186 8 13.4588 8 13.5001V15.5834C8 15.8596 8.22386 16.0834 8.5 16.0834C8.77614 16.0834 9 15.8596 9 15.5834V13.5001C9 13.4588 8.99498 13.4186 8.98553 13.3802Z" fill="white" fill-opacity="0.5"/>
</svg>
