<svg width="22" height="17" viewBox="0 0 22 17" fill="none" xmlns="http://www.w3.org/2000/svg">
    <path fill-rule="evenodd" clip-rule="evenodd" d="M0 4.46286C0 1.99809 1.99809 0 4.46286 0H17.5371C20.0019 0 22 1.99809 22 4.46286V12.5086C22 14.9733 20.0019 16.9714 17.5371 16.9714H4.46286C1.99809 16.9714 0 14.9733 0 12.5086V4.46286ZM4.42571 1C2 1 1 3.03097 1 4.45429V12.5C1 13.9233 2 16 4.42571 16H17.5C20 16 21 13.9319 21 12.5086V4.46286C21 3.03954 20 1 17.5 1H4.42571Z" fill="white" fill-opacity="0.5"/>
    <path d="M1 2L10.7714 9L20.5 2" stroke="white" stroke-opacity="0.5"/>
</svg>